<svg id="圖層_1" data-name="圖層 1" xmlns="http://www.w3.org/2000/svg" viewBox="0 0 316.4 138.07"><path d="M315.17,77.23v-.08c-.09-4.56-3.43-8.27-7.44-8.27a6.59,6.59,0,0,0-2.49.5l-.74.3-.26-.75a8.32,8.32,0,0,0-7.63-5.85A7.38,7.38,0,0,0,293,64l-.72.39-.34-.74c-1.44-3.16-4.19-5.13-7.19-5.13a6.8,6.8,0,0,0-2.63.54l-1,.42V38.74a8.2,8.2,0,1,0-16.36,0V74.15l-.41.21-.16.07c-.39.25-9.77,6.17-12.24,17-2.29,10,8.8,27.09,11,30.4l.13.19v12.55a2.25,2.25,0,0,0,4.5,0v-14l-.41-.58c-5.21-7.43-12.4-20.91-10.88-27.6a23.61,23.61,0,0,1,7.15-11.75l1.27-1.18V90.93a2.25,2.25,0,0,0,4.5,0V38.74a3.71,3.71,0,1,1,7.35,0V79.63a2.26,2.26,0,0,0,4.51,0V68.33c0-3.16,1.9-5.27,3.67-5.27s3.68,2.11,3.68,5.27V80.94a2.25,2.25,0,1,0,4.5,0V72.2c0-2.51,1.69-4.62,3.68-4.62s3.68,2.07,3.68,4.62V85.44a2.25,2.25,0,0,0,4.5,0V77.35c0-2.37,1.52-4,2.94-4s2.94,1.59,2.94,4c0,.1,0,.21,0,.31,0,.25,3.28,24.78-9.95,42.36a2.24,2.24,0,0,0-.45,1.35v13.25a2.25,2.25,0,0,0,4.5,0V122.11l.14-.19C318.11,103.61,315.51,79.88,315.17,77.23Z" fill="#fff"/><rect x="282.67" y="21.41" width="14.09" height="3.77" transform="translate(68.36 211.65) rotate(-44.99)" fill="#fff"/><rect x="241.87" y="38.31" width="14.09" height="3.77" fill="#fff"/><rect x="289.67" y="38.31" width="14.09" height="3.77" fill="#fff"/><rect x="254.03" y="16.25" width="3.77" height="14.09" transform="translate(58.48 187.78) rotate(-45)" fill="#fff"/><rect x="270.93" y="9.25" width="3.77" height="14.09" fill="#fff"/><path d="M88.27,44.78A43.62,43.62,0,0,0,1,44.78c0,1.29.07,2.57.17,3.83,0,.28.29.43.35.69,2.8,37.31,38.27,71,39.86,72.52a4.77,4.77,0,0,0,6.48,0c1.59-1.48,37-35.18,39.85-72.46.07-.28.34-.44.36-.74C88.2,47.36,88.27,46.07,88.27,44.78ZM44.65,111.53c-8.87-9.17-34.09-37.77-34.09-66.75a34.09,34.09,0,0,1,68.18,0C78.74,73.76,53.52,102.36,44.65,111.53Z" fill="#fff"/><path d="M44.65,28.2a20,20,0,1,0,20,20A20,20,0,0,0,44.65,28.2Zm0,30.53a10.5,10.5,0,1,1,10.5-10.5A10.51,10.51,0,0,1,44.65,58.73Z" fill="#fff"/><path d="M270.09,12.34a9,9,0,0,1,1.05.06,8.55,8.55,0,0,1,1.11-2.86,12.85,12.85,0,0,0-2.16-.2H63.34a11.77,11.77,0,0,1,1.52,3Z" fill="#fff"/><path d="M267.07,135.07h-245a9.93,9.93,0,0,1-9.92-9.91V70.06a11,11,0,0,1-3-1.3v56.4a12.93,12.93,0,0,0,12.92,12.91H267.17A12.05,12.05,0,0,1,267.07,135.07Z" fill="#fff"/><text transform="translate(89.91 98.14)" font-size="74" fill="#fff" font-family="MYingHeiHK-W7, M Ying Hei HK">地圖</text></svg>